<?xml version="1.0" standalone="no"?><!DOCTYPE svg PUBLIC "-//W3C//DTD SVG 1.1//EN" "http://www.w3.org/Graphics/SVG/1.1/DTD/svg11.dtd"><svg t="1621328928060" class="icon" viewBox="0 0 1024 1024" version="1.1" xmlns="http://www.w3.org/2000/svg" p-id="1857" xmlns:xlink="http://www.w3.org/1999/xlink" width="200" height="200"><defs><style type="text/css"></style></defs><path d="M512 73.142857C263.857633 73.142857 62.693878 274.306612 62.693878 522.44898S263.857633 971.755102 512 971.755102 961.306122 770.591347 961.306122 522.44898 760.142367 73.142857 512 73.142857z m0 62.693878c213.514449 0 386.612245 173.097796 386.612245 386.612245S725.514449 909.061224 512 909.061224 125.387755 735.963429 125.387755 522.44898 298.485551 135.836735 512 135.836735z" fill="#13227a" p-id="1858"></path><path d="M501.65551 700.708571c13.667265 0 26.226939-2.110694 37.679021-6.373877a124.614531 124.614531 0 0 0 31.32604-16.885551c9.404082-7.021714 18.014041-15.15102 25.767184-24.387919 7.753143-9.236898 14.774857-18.661878 21.065143-28.274938 1.83902-5.537959 2.758531-9.613061 2.758531-12.18351 0-7.021714-2.507755-12.747755-7.48147-17.178123a26.185143 26.185143 0 0 0-18.014041-6.666449 33.018776 33.018776 0 0 0-21.608489 7.774041l-1.107592 0.543347a157.403429 157.403429 0 0 1-13.019429 19.685877c-4.994612 6.478367-10.34449 12.288-16.091428 17.449796-5.705143 5.182694-11.995429 9.404082-18.829062 12.747755-6.833633 3.343673-14.12702 4.994612-21.901061 4.994613-13.291102 0-25.119347-2.96751-35.463837-8.881633a84.365061 84.365061 0 0 1-26.331428-23.552 107.41551 107.41551 0 0 1-16.342204-33.227755 132.033306 132.033306 0 0 1-5.537959-37.971592c0-18.473796 2.779429-34.836898 8.317387-49.04751a128.313469 128.313469 0 0 1 22.444408-37.699919c9.404082-10.887837 20.229224-20.229224 32.412735-27.982367 12.204408-7.753143 25.119347-14.210612 38.80751-19.393306l8.860735-3.343673c5.161796-1.83902 9.968327-3.489959 14.419592-4.973715 4.430367-1.462857 7.732245-2.215184 9.968326-2.215183 3.698939 0 7.021714 1.83902 9.968327 5.537959 2.96751 3.698939 7.021714 9.989224 12.204408 18.849959 7.37698 7.37698 15.506286 11.075918 24.367021 11.075918 7.021714 0 13.040327-2.215184 18.01404-6.645551a21.942857 21.942857 0 0 0 7.48147-17.178122c0-2.96751-0.355265-5.914122-1.107592-8.860735-9.613061-18.849959-19.936653-32.161959-31.033469-39.915102a64.135837 64.135837 0 0 0-37.679021-11.640163c-9.613061 0-19.121633 1.295673-28.546612 3.88702-9.404082 2.591347-19.66498 6.269388-30.761796 11.075919h0.564245c-17.366204 7.021714-32.705306 14.503184-45.996408 22.444408a187.621878 187.621878 0 0 0-35.484735 27.167347 153.349224 153.349224 0 0 0-26.582204 35.192163 248.602122 248.602122 0 0 0-19.414204 46.539755 145.30351 145.30351 0 0 0-6.081306 42.673633c0 21.817469 3.322776 42.213878 9.968326 61.23102 6.645551 19.038041 16.091429 35.672816 28.254041 49.904327a132.075102 132.075102 0 0 0 43.802123 33.520326c16.990041 8.129306 35.651918 12.18351 55.964734 12.18351z" fill="#13227a" p-id="1859"></path></svg>